<?xml version="1.0" encoding="utf-8"?>
<!-- Generator: Adobe Illustrator 24.3.0, SVG Export Plug-In . SVG Version: 6.00 Build 0)  -->
<svg version="1.0" id="katman_1" xmlns="http://www.w3.org/2000/svg" xmlns:xlink="http://www.w3.org/1999/xlink" x="0px" y="0px"
	 viewBox="0 0 841.89 595.28" style="enable-background:new 0 0 841.89 595.28;" xml:space="preserve">
<style type="text/css">
	.st0{fill:#5C913B;}
	.st1{fill:#77B255;}
	.st2{fill:#FFCC4D;}
</style>
<path class="st0" d="M332.71,94.75c86.81-17.08,113.25,16.95,156.15,1.13c42.9-15.82,1.25,37.78-9.98,47
	c-11.25,9.22-109.07,64.43-151.48,44.18S284.76,104.19,332.71,94.75z"/>
<path class="st1" d="M380.89,264.38c-4.07,0-8.11-1.85-10.73-5.36c-9.2-12.27-17.52-26.19-26.33-40.94
	C313.45,167.23,279,109.59,190.4,89.89c-7.22-1.61-11.78-8.76-10.17-15.98c1.61-7.23,8.76-11.76,15.98-10.17
	c99.86,22.19,139.09,87.85,170.62,140.61c8.44,14.12,16.4,27.45,24.76,38.6c4.45,5.92,3.24,14.32-2.68,18.76
	C386.5,263.51,383.69,264.38,380.89,264.38z"/>
<path class="st2" d="M639.44,472.49c0.03-0.23-0.04-0.38-0.04-0.58c37.16-71.47,35.46-202.47-44.83-282.78
	c-77.72-77.7-183.28-77.99-251.43-54.49c-21.15,8.23-39.08,0.88-51.11,12.93c-11.8,11.8-4.7,36.43-9.57,51.16
	c-42.46,69.69-45.62,174.5,36.01,256.12c66.48,66.48,139.84,91.66,267.68,65.02c0.03-0.03,0.07-0.01,0.11-0.03
	c15.38-2.92,39.52,7.01,47.77-1.26C648.58,504.06,638.18,487,639.44,472.49z"/>
<path class="st1" d="M289.88,138.22c0,0-57.21-7.9-91.87,61.61c-34.66,69.51,7.8,122.25,3.89,169.52
	c-3.93,47.29,20.98,16.95,35.11-5.96c14.13-22.91,56.67-65.58,66.16-124.18C312.64,180.58,302.23,152.68,289.88,138.22z"/>
</svg>
